<svg width="12" height="12" viewBox="0 0 12 12" fill="none" xmlns="http://www.w3.org/2000/svg">
<path fill-rule="evenodd" clip-rule="evenodd" d="M5.72468 0.688354L7.23356 2.19723C7.4597 2.13574 7.70442 2.20453 7.87175 2.37572L8.82674 3.33071C9.21924 3.72064 9.22917 4.34693 8.84846 4.73027L7.95537 5.62336C7.82696 5.75177 7.83095 5.96249 7.96265 6.09291L8.70886 6.83912C9.22151 7.37103 9.21655 8.20716 8.69753 8.70642C8.1785 9.20569 7.34198 9.17943 6.82933 8.64752L6.11803 7.93622C5.98761 7.80451 5.77754 7.80119 5.64848 7.92894L4.7297 8.84771C4.34637 9.22841 3.72007 9.21849 3.33014 8.82599L2.37581 7.87166C2.20398 7.70496 2.13582 7.45831 2.19861 7.23218L0.689731 5.7233C0.436841 5.4717 0.430388 5.06717 0.675635 4.82061L4.82199 0.674258C5.06919 0.428369 5.47307 0.435464 5.72468 0.688354ZM1.85762 4.55541L1.14751 5.26552L1.14555 5.26485L2.59055 6.70984L6.7369 2.56349L5.311 1.13759L4.62144 1.82715L5.33209 2.5378C5.38995 2.63932 5.39152 2.76288 5.33623 2.86296C5.2485 3.0205 5.04761 3.07386 4.88779 2.98209L4.15936 2.25367L3.45311 2.95992L4.18153 3.68835C4.2394 3.78987 4.24097 3.91343 4.18568 4.01351C4.09795 4.17105 3.89706 4.22441 3.73724 4.13265L3.00881 3.40422L2.30192 4.11112L3.03034 4.83954C3.0882 4.94106 3.08978 5.06463 3.03448 5.16471C2.94676 5.32225 2.74587 5.37561 2.58604 5.28384L1.85762 4.55541ZM8.48929 4.04657L8.37944 4.2443L8.39922 4.22453C8.44925 4.1745 8.47918 4.11197 8.48929 4.04657Z" fill="#666666"/>
<path d="M7.23356 2.19723L7.1982 2.23259L7.2187 2.25309L7.24668 2.24548L7.23356 2.19723ZM5.72468 0.688354L5.68923 0.723619L5.68932 0.723709L5.72468 0.688354ZM7.87175 2.37572L7.83599 2.41067L7.8364 2.41108L7.87175 2.37572ZM8.82674 3.33071L8.79138 3.36606L8.7915 3.36618L8.82674 3.33071ZM8.84846 4.73027L8.88382 4.76562L8.88394 4.7655L8.84846 4.73027ZM7.96265 6.09291L7.99801 6.05756L7.99784 6.05739L7.96265 6.09291ZM8.70886 6.83912L8.74487 6.80442L8.74422 6.80377L8.70886 6.83912ZM8.69753 8.70642L8.73219 8.74246L8.69753 8.70642ZM6.82933 8.64752L6.86534 8.61282L6.86469 8.61217L6.82933 8.64752ZM6.11803 7.93622L6.0825 7.9714L6.08268 7.97158L6.11803 7.93622ZM5.64848 7.92894L5.6133 7.8934L5.61312 7.89358L5.64848 7.92894ZM4.7297 8.84771L4.76494 8.88319L4.76506 8.88307L4.7297 8.84771ZM3.33014 8.82599L3.36561 8.79075L3.3655 8.79063L3.33014 8.82599ZM2.37581 7.87166L2.41117 7.8363L2.41063 7.83577L2.37581 7.87166ZM2.19861 7.23218L2.24679 7.24556L2.25459 7.21745L2.23397 7.19683L2.19861 7.23218ZM0.689731 5.7233L0.725086 5.68795L0.724996 5.68786L0.689731 5.7233ZM0.675635 4.82061L0.64028 4.78525L0.640185 4.78535L0.675635 4.82061ZM4.82199 0.674258L4.78673 0.638808L4.78663 0.638903L4.82199 0.674258ZM1.14751 5.26552L1.13123 5.31279L1.16077 5.32297L1.18287 5.30088L1.14751 5.26552ZM1.85762 4.55541L1.89297 4.52006L1.85762 4.4847L1.82226 4.52006L1.85762 4.55541ZM1.14555 5.26485L1.16184 5.21757L1.1102 5.3002L1.14555 5.26485ZM2.59055 6.70984L2.55519 6.7452L2.59055 6.78055L2.6259 6.7452L2.59055 6.70984ZM6.7369 2.56349L6.77225 2.59884L6.80761 2.56349L6.77225 2.52813L6.7369 2.56349ZM5.311 1.13759L5.34636 1.10224L5.311 1.06688L5.27565 1.10224L5.311 1.13759ZM4.62144 1.82715L4.58609 1.7918L4.55073 1.82715L4.58609 1.86251L4.62144 1.82715ZM5.33209 2.5378L5.37713 2.51213L5.36744 2.50244L5.33209 2.5378ZM5.33623 2.86296L5.37991 2.88729L5.37999 2.88714L5.33623 2.86296ZM4.88779 2.98209L4.85116 3.01872L4.86289 3.02546L4.88779 2.98209ZM4.15936 2.25367L4.19472 2.21831L4.15936 2.18296L4.12401 2.21831L4.15936 2.25367ZM3.45311 2.95992L3.41775 2.92457L3.3824 2.95992L3.41775 2.99528L3.45311 2.95992ZM4.18153 3.68835L4.22657 3.66268L4.21689 3.65299L4.18153 3.68835ZM4.18568 4.01351L4.22936 4.03784L4.22944 4.03769L4.18568 4.01351ZM3.73724 4.13265L3.70061 4.16927L3.71234 4.17601L3.73724 4.13265ZM3.00881 3.40422L3.04417 3.36887L3.00881 3.33351L2.97346 3.36887L3.00881 3.40422ZM2.30192 4.11112L2.26656 4.07576L2.2312 4.11112L2.26656 4.14647L2.30192 4.11112ZM3.03034 4.83954L3.07538 4.81387L3.0657 4.80419L3.03034 4.83954ZM3.03448 5.16471L3.07817 5.18903L3.07825 5.18889L3.03448 5.16471ZM2.58604 5.28384L2.54942 5.32047L2.56115 5.3272L2.58604 5.28384ZM8.48929 4.04657L8.53871 4.05421L8.44559 4.02229L8.48929 4.04657ZM8.37944 4.2443L8.33574 4.22002L8.4148 4.27966L8.37944 4.2443ZM7.26891 2.16188L5.76003 0.652998L5.68932 0.723709L7.1982 2.23259L7.26891 2.16188ZM7.90751 2.34077C7.7279 2.15703 7.46463 2.08259 7.22044 2.14899L7.24668 2.24548C7.45478 2.1889 7.68093 2.25204 7.836 2.41067L7.90751 2.34077ZM8.8621 3.29535L7.90711 2.34037L7.8364 2.41108L8.79138 3.36606L8.8621 3.29535ZM8.88394 4.7655C9.28491 4.36176 9.27324 3.70381 8.86198 3.29524L8.7915 3.36618C9.16524 3.73747 9.17342 4.33211 8.81299 4.69504L8.88394 4.7655ZM7.99073 5.65871L8.88382 4.76562L8.81311 4.69491L7.92002 5.588L7.99073 5.65871ZM7.99784 6.05739C7.88487 5.94552 7.88285 5.76659 7.99073 5.65871L7.92002 5.588C7.77108 5.73694 7.77703 5.97947 7.92747 6.12844L7.99784 6.05739ZM8.74422 6.80377L7.99801 6.05756L7.9273 6.12827L8.67351 6.87448L8.74422 6.80377ZM8.73219 8.74246C9.272 8.2232 9.27584 7.35535 8.74486 6.80442L8.67286 6.87382C9.16718 7.38671 9.1611 8.19112 8.66287 8.67039L8.73219 8.74246ZM6.79333 8.68222C7.3243 9.23314 8.19243 9.26167 8.73219 8.74246L8.66287 8.67039C8.16458 9.14971 7.35966 9.12572 6.86533 8.61282L6.79333 8.68222ZM6.08268 7.97158L6.79398 8.68288L6.86469 8.61217L6.15339 7.90086L6.08268 7.97158ZM5.68365 7.96448C5.79239 7.85685 5.9708 7.8586 6.0825 7.9714L6.15356 7.90104C6.00442 7.75043 5.7627 7.74553 5.6133 7.8934L5.68365 7.96448ZM4.76506 8.88307L5.68383 7.9643L5.61312 7.89358L4.69435 8.81236L4.76506 8.88307ZM3.29467 8.86123C3.70324 9.27249 4.36119 9.28416 4.76494 8.88319L4.69447 8.81224C4.33154 9.17267 3.7369 9.16449 3.36561 8.79075L3.29467 8.86123ZM2.34046 7.90701L3.29479 8.86134L3.3655 8.79063L2.41117 7.8363L2.34046 7.90701ZM2.15043 7.2188C2.08264 7.46296 2.15633 7.7284 2.341 7.90755L2.41063 7.83577C2.25163 7.68153 2.189 7.45367 2.24679 7.24556L2.15043 7.2188ZM0.654375 5.75866L2.16326 7.26754L2.23397 7.19683L0.725086 5.68795L0.654375 5.75866ZM0.640185 4.78535C0.374601 5.05236 0.382883 5.48854 0.654466 5.75875L0.724996 5.68786C0.490798 5.45485 0.486176 5.08199 0.711085 4.85587L0.640185 4.78535ZM4.78663 0.638903L0.64028 4.78525L0.710991 4.85597L4.85734 0.709613L4.78663 0.638903ZM5.76012 0.653089C5.48995 0.38154 5.05441 0.372549 4.78673 0.638809L4.85725 0.709708C5.08397 0.48419 5.45619 0.489387 5.68923 0.723619L5.76012 0.653089ZM1.18287 5.30088L1.89297 4.59077L1.82226 4.52006L1.11216 5.23017L1.18287 5.30088ZM1.12927 5.31212L1.13123 5.31279L1.1638 5.21825L1.16184 5.21757L1.12927 5.31212ZM2.6259 6.67449L1.18091 5.22949L1.1102 5.3002L2.55519 6.7452L2.6259 6.67449ZM6.70154 2.52813L2.55519 6.67449L2.6259 6.7452L6.77225 2.59884L6.70154 2.52813ZM5.27565 1.17295L6.70154 2.59884L6.77225 2.52813L5.34636 1.10224L5.27565 1.17295ZM4.6568 1.86251L5.34636 1.17295L5.27565 1.10224L4.58609 1.7918L4.6568 1.86251ZM5.36744 2.50244L4.6568 1.7918L4.58609 1.86251L5.29673 2.57315L5.36744 2.50244ZM5.37999 2.88714C5.44394 2.7714 5.44179 2.62929 5.37553 2.51304L5.28865 2.56255C5.33811 2.64934 5.33911 2.75436 5.29246 2.83878L5.37999 2.88714ZM4.86289 3.02546C5.04597 3.13057 5.27812 3.07009 5.37991 2.88729L5.29254 2.83864C5.21889 2.97091 5.04926 3.01715 4.91269 2.93873L4.86289 3.02546ZM4.12401 2.28902L4.85243 3.01745L4.92314 2.94674L4.19472 2.21831L4.12401 2.28902ZM3.48846 2.99528L4.19472 2.28902L4.12401 2.21831L3.41775 2.92457L3.48846 2.99528ZM4.21689 3.65299L3.48846 2.92457L3.41775 2.99528L4.14618 3.7237L4.21689 3.65299ZM4.22944 4.03769C4.29339 3.92195 4.29123 3.77985 4.22497 3.66359L4.13809 3.71311C4.18756 3.79989 4.18855 3.90491 4.14191 3.98933L4.22944 4.03769ZM3.71234 4.17601C3.89542 4.28112 4.12757 4.22064 4.22936 4.03784L4.14199 3.98919C4.06834 4.12146 3.89871 4.1677 3.76213 4.08929L3.71234 4.17601ZM2.97346 3.43958L3.70188 4.168L3.77259 4.09729L3.04417 3.36887L2.97346 3.43958ZM2.33727 4.14647L3.04417 3.43958L2.97346 3.36887L2.26656 4.07576L2.33727 4.14647ZM3.0657 4.80419L2.33727 4.07576L2.26656 4.14647L2.99499 4.8749L3.0657 4.80419ZM3.07825 5.18889C3.14219 5.07315 3.14004 4.93104 3.07378 4.81478L2.9869 4.8643C3.03637 4.95109 3.03736 5.05611 2.99072 5.14053L3.07825 5.18889ZM2.56115 5.3272C2.74422 5.43232 2.97637 5.37184 3.07817 5.18903L2.9908 5.14038C2.91714 5.27265 2.74751 5.31889 2.61094 5.24048L2.56115 5.3272ZM1.82226 4.59077L2.55069 5.31919L2.6214 5.24848L1.89297 4.52006L1.82226 4.59077ZM8.44559 4.02229L8.33574 4.22002L8.42315 4.26858L8.533 4.07085L8.44559 4.02229ZM8.36386 4.18917L8.34409 4.20894L8.4148 4.27966L8.43458 4.25988L8.36386 4.18917ZM8.43988 4.03893C8.43132 4.09429 8.40606 4.14697 8.36386 4.18917L8.43458 4.25988C8.49244 4.20202 8.52704 4.12965 8.53871 4.05421L8.43988 4.03893Z" fill="#666666"/>
</svg>
