<?xml version="1.0"?>
<svg xmlns="http://www.w3.org/2000/svg"  viewBox="0 0 116 120" fill="none"><path d="M111.693 41.4949H103.418C99.6818 16.0698 88.81 0 74.8932 0C62.9753 0 53.2429 11.7129 48.2366 32.0642C47.7412 34.0077 48.0306 36.0702 49.0413 37.7981C50.052 39.526 51.7011 40.7778 53.6258 41.278C55.5506 41.7782 57.5933 41.486 59.3046 40.4655C61.0159 39.445 62.2557 37.7799 62.7511 35.8365C66.263 21.5019 71.9604 15.0891 74.9119 15.0891C78.4425 15.0891 85.186 23.9162 88.2682 41.4949H79.227C78.3883 41.4965 77.5682 41.7449 76.8671 42.2097C76.1659 42.6745 75.6141 43.3356 75.2792 44.112C74.9443 44.8884 74.8407 45.7466 74.9812 46.5815C75.1216 47.4164 75.5 48.1919 76.0701 48.8131L89.5945 63.4306C90.3459 64.2415 91.2543 64.888 92.2632 65.33C93.2722 65.772 94.3603 66 95.4601 66C96.5599 66 97.648 65.772 98.657 65.33C99.666 64.888 100.574 64.2415 101.326 63.4306L114.85 48.8131C115.42 48.1919 115.799 47.4164 115.939 46.5815C116.08 45.7466 115.976 44.8884 115.641 44.112C115.306 43.3356 114.754 42.6745 114.053 42.2097C113.352 41.7449 112.532 41.4965 111.693 41.4949Z" fill="#c26ac0"></path><path d="M7.5 66C11.6421 66 15 62.6421 15 58.5C15 54.3579 11.6421 51 7.5 51C3.35786 51 0 54.3579 0 58.5C0 62.6421 3.35786 66 7.5 66Z" fill="white"></path><path d="M7.5 36C11.6421 36 15 32.6421 15 28.5C15 24.3579 11.6421 21 7.5 21C3.35786 21 0 24.3579 0 28.5C0 32.6421 3.35786 36 7.5 36Z" fill="white"></path><path d="M95.5 96C99.6421 96 103 92.6421 103 88.5C103 84.3579 99.6421 81 95.5 81C91.3579 81 88 84.3579 88 88.5C88 92.6421 91.3579 96 95.5 96Z" fill="white"></path><path d="M29.9184 120C43.8047 120 54.6632 103.937 58.4385 78.5225H66.6618C67.5062 78.5229 68.3324 78.2746 69.0388 77.8081C69.7453 77.3416 70.3014 76.6771 70.6388 75.8963C70.9762 75.1154 71.0803 74.2522 70.9382 73.4125C70.7961 72.5729 70.4141 71.7934 69.8391 71.1696L56.3453 56.5771C55.595 55.764 54.6867 55.1156 53.677 54.6722C52.6674 54.2288 51.578 54 50.4768 54C49.3756 54 48.2862 54.2288 47.2766 54.6722C46.2669 55.1156 45.3586 55.764 44.6083 56.5771L31.1145 71.1696C30.5395 71.7934 30.1575 72.5729 30.0154 73.4125C29.8733 74.2522 29.9774 75.1154 30.3148 75.8963C30.6522 76.6771 31.2083 77.3416 31.9147 77.8081C32.6212 78.2746 33.4474 78.5229 34.2917 78.5225H43.2814C40.1976 96.0939 33.432 104.917 29.9184 104.917C26.4048 104.917 21.0222 97.3759 17.7703 84.1785C17.3019 82.2309 16.0857 80.5508 14.3893 79.5077C12.6929 78.4647 10.6552 78.1442 8.7246 78.6167C6.79394 79.0893 5.12844 80.3161 4.09448 82.0274C3.06052 83.7387 2.7428 85.7942 3.21121 87.7418C7.62192 106.086 16.6302 120 29.9184 120Z" fill="white"></path></svg>