<?xml version="1.0"?>
<svg xmlns="http://www.w3.org/2000/svg" fill="none" viewBox="0 0 119 112" ><path d="M87.7539 14.1939L91.8053 15.9124C93.1641 16.4872 94.3226 17.4452 95.1367 18.6673C95.9508 19.8894 96.3847 21.3218 96.3843 22.7863V35.2453C96.3965 42.6886 98.8355 49.9286 103.338 55.8857C98.8355 61.8428 96.3965 69.0828 96.3843 76.5261V88.9851C96.3862 90.4475 95.9552 91.8783 95.1446 93.1002C94.334 94.3221 93.1794 95.2814 91.8241 95.859L87.7727 97.5775C86.8346 97.9442 85.9802 98.4937 85.2602 99.1936C84.5401 99.8935 83.9691 100.729 83.5809 101.652C83.1927 102.575 82.9952 103.565 83.0001 104.565C83.005 105.564 83.2122 106.553 83.6094 107.472C84.0067 108.39 84.5859 109.221 85.3127 109.914C86.0396 110.607 86.8993 111.148 87.841 111.506C88.7827 111.863 89.7872 112.03 90.7951 111.996C91.8029 111.961 92.7936 111.727 93.7085 111.307L97.7599 109.588C101.818 107.863 105.277 104.998 107.712 101.347C110.146 97.6956 111.449 93.4178 111.459 89.0411V76.5261C111.464 72.1137 112.979 67.8335 115.756 64.3847L116.17 63.8617C118.002 61.5927 119 58.7731 119 55.867C119 52.9609 118.002 50.1414 116.17 47.8724L115.756 47.368C112.983 43.9243 111.469 39.6513 111.459 35.2453V22.7863C111.449 18.4097 110.146 14.1318 107.712 10.4806C105.277 6.82931 101.818 3.96439 97.7599 2.23927L93.7085 0.520792C91.8843 -0.192159 89.8517 -0.172422 88.0421 0.575819C86.2324 1.32406 84.788 2.7419 84.0156 4.52842C83.2432 6.31494 83.2036 8.32951 83.905 10.1446C84.6065 11.9596 85.9939 13.4322 87.7727 14.2499L87.7539 14.1939Z" fill="white"></path><path d="M3.19024 64.5402C5.9205 67.9943 7.40984 72.2811 7.41493 76.7003V89.1785C7.42524 93.5619 8.70632 97.8464 11.1001 101.503C13.4939 105.16 16.8957 108.03 20.8858 109.757L24.8696 111.478C26.6633 112.192 28.662 112.173 30.4415 111.423C32.221 110.674 33.6412 109.254 34.4007 107.465C35.1602 105.675 35.1993 103.658 34.5095 101.84C33.8197 100.022 32.4555 98.547 30.7063 97.7281L26.7225 96.0069C25.3985 95.4322 24.2691 94.4801 23.4727 93.2673C22.6763 92.0546 22.2473 90.6337 22.2384 89.1785V76.7003C22.2278 69.2453 19.8293 61.9937 15.4011 56.0281C19.8293 50.0624 22.2278 42.8108 22.2384 35.3558V22.8776C22.2365 21.4129 22.6604 19.9799 23.4574 18.7561C24.2545 17.5323 25.3898 16.5716 26.7225 15.9931L30.7063 14.2719C32.4555 13.453 33.8197 11.9781 34.5095 10.1602C35.1993 8.34236 35.1602 6.32469 34.4007 4.53541C33.6412 2.74613 32.221 1.3261 30.4415 0.576709C28.662 -0.172686 26.6633 -0.192457 24.8696 0.521594L20.8858 2.24272C16.8957 3.9705 13.4939 6.83984 11.1001 10.4967C8.70632 14.1536 7.42524 18.4381 7.41493 22.8215V35.2997C7.40984 39.7189 5.9205 44.0057 3.19024 47.4598L2.78259 47.9836C0.98136 50.2562 0 53.08 0 55.9906C0 58.9012 0.98136 61.7251 2.78259 63.9976L3.19024 64.5402Z" fill="white"></path><path d="M38.5 54C42.6421 54 46 50.6421 46 46.5C46 42.3579 42.6421 39 38.5 39C34.3579 39 31 42.3579 31 46.5C31 50.6421 34.3579 54 38.5 54Z" fill="#c26ac0"></path><path d="M79.5 54C83.6421 54 87 50.6421 87 46.5C87 42.3579 83.6421 39 79.5 39C75.3579 39 72 42.3579 72 46.5C72 50.6421 75.3579 54 79.5 54Z" fill="#c26ac0"></path><path d="M44.3564 66.23C44.1181 67.2557 43.9986 68.3045 44 69.3565C44.0171 72.9154 45.3492 76.3477 47.7496 79.0173C50.15 81.6869 53.4558 83.4128 57.0546 83.8752C60.6533 84.3377 64.3011 83.5053 67.3218 81.5323C70.3426 79.5593 72.5317 76.5795 73.4834 73.145C74.1171 70.8816 74.1686 68.4994 73.6334 66.2116C73.3347 65.009 72.6322 63.9398 71.6389 63.1759C70.6456 62.412 69.4192 61.9979 68.1569 62H49.8517C48.5836 61.9947 47.3509 62.4096 46.3534 63.1774C45.356 63.9452 44.6522 65.0209 44.3564 66.23Z" fill="#c26ac0"></path></svg>