<svg width="9" height="10" viewBox="0 0 9 10" fill="none" xmlns="http://www.w3.org/2000/svg">
<path fill-rule="evenodd" clip-rule="evenodd" d="M5.23734 9.41852C5.27439 9.40762 5.3109 9.39473 5.34671 9.37989C5.4785 9.32525 5.59823 9.24518 5.69905 9.14425L8.38589 6.45741C8.58182 6.25125 8.68901 5.97644 8.68443 5.69207C8.68525 5.5492 8.65787 5.40757 8.60385 5.2753C8.54982 5.14304 8.47022 5.02274 8.36961 4.9213L3.79927 0.318389C3.69844 0.217455 3.57872 0.137383 3.44693 0.0827509C3.31514 0.0281193 3.17387 -2.4088e-07 3.03121 -2.47116e-07C2.88855 -2.53352e-07 2.74728 0.0281193 2.61549 0.0827509C2.48371 0.137383 2.36398 0.217455 2.26315 0.318389L-0.00030338 2.56014L-0.000303486 4.981L1.61324 6.59454C1.65712 6.6508 1.70719 6.70705 1.76345 6.76331L4.11623 9.11609C4.48993 9.48979 4.86364 9.5906 5.23734 9.41852ZM1.76654 5.22495L4.30046 2.69103C4.35544 2.63605 4.41043 2.58697 4.46541 2.54381L3.01221 1.08373L1.08529 3.01066L1.08529 4.53591L1.76654 5.22495Z" fill="#666666"/>
</svg>
