<svg width="113" height="120" viewBox="0 0 113 120" fill="none" xmlns="http://www.w3.org/2000/svg">
<path d="M112.349 73.8596V32.2518C112.349 20.7458 104.562 10.7119 93.4237 7.86441L69.0751 1.62712C64.8717 0.542373 60.5327 0 56.1743 0C51.816 0 47.477 0.542373 43.2736 1.62712L18.9249 7.86441C7.78693 10.7312 0 20.7458 0 32.2518V73.8596C0 85.7337 6.41162 96.7554 16.7167 102.625L39.8063 115.758C49.7627 121.414 62.5666 121.414 72.523 115.758L95.6126 102.625C105.937 96.7554 112.329 85.7337 112.329 73.8596H112.349ZM89.8789 92.5133L66.7893 105.646C63.5545 107.487 59.8935 108.455 56.1743 108.455C52.4552 108.455 48.7942 107.487 45.5593 105.646L22.4697 92.5133C15.7676 88.6973 11.6223 81.5496 11.6223 73.8596V32.2518C11.6223 26.0533 15.8063 20.6489 21.8111 19.1186L46.1598 12.8814C52.6877 11.1961 59.661 11.1961 66.1889 12.8814L90.5375 19.1186C96.5424 20.6489 100.726 26.0533 100.726 32.2518V73.8596C100.726 81.5496 96.5618 88.6973 89.8789 92.5133Z" fill="white"/>
<path d="M79.6518 42.3631C77.4629 40.1742 73.6276 40.1742 71.4387 42.3631L52.8625 60.9394C51.5646 62.2372 49.1433 62.2372 47.8455 60.9394L40.9109 54.0047C39.8068 52.9006 38.354 52.3001 36.8043 52.3001C35.2547 52.3001 33.8019 52.9006 32.6978 54.0047C30.4315 56.2711 30.4315 59.9515 32.6978 62.2178L39.6518 69.1718C42.5186 72.0386 46.3152 73.6076 50.383 73.6076C54.4508 73.6076 58.2474 72.0386 61.1143 69.1718L79.6905 50.5955C81.9569 48.3292 81.9569 44.6488 79.6905 42.3824L79.6518 42.3631Z" fill="#c26ac0"/>
</svg>
