<?xml version="1.0"?>
<svg  xmlns="http://www.w3.org/2000/svg" viewBox="0 0 121 120" fill="none"><path d="M25.5769 22.82C20.2204 23.6183 15.1799 25.8517 10.9902 29.2834C6.8005 32.715 3.61791 37.2168 1.78011 42.3111C-0.0576896 47.4054 -0.482149 52.9022 0.551774 58.2183C1.5857 63.5344 4.03943 68.4714 7.65263 72.5055C8.98032 73.9973 10.8462 74.9006 12.8399 75.0166C14.8336 75.1327 16.7917 74.452 18.2835 73.1243C19.7752 71.7966 20.6785 69.9307 20.7945 67.937C20.9106 65.9433 20.2299 63.9852 18.9022 62.4935C16.9793 60.3414 15.7182 57.6802 15.2699 54.8293C14.8217 51.9783 15.2055 49.0586 16.3752 46.4203C17.5449 43.782 19.4509 41.5372 21.8646 39.9551C24.2783 38.373 27.0971 37.5208 29.983 37.5007H31.0517C32.7134 37.4994 34.3276 36.9464 35.6409 35.9283C36.9542 34.9102 37.8922 33.4848 38.3077 31.8759C39.5293 27.0514 42.325 22.7721 46.2524 19.7152C50.1797 16.6584 55.0144 14.9986 59.9912 14.9986C64.968 14.9986 69.8026 16.6584 73.73 19.7152C77.6573 22.7721 80.4531 27.0514 81.6747 31.8759C82.0901 33.4848 83.0281 34.9102 84.3414 35.9283C85.6547 36.9464 87.269 37.4994 88.9307 37.5007H89.9806C92.8729 37.5064 95.7019 38.3482 98.1267 39.9247C100.552 41.5012 102.469 43.7452 103.648 46.3863C104.827 49.0274 105.217 51.9531 104.771 54.8108C104.326 57.6686 103.063 60.3366 101.136 62.4935C100.479 63.2321 99.9736 64.093 99.6489 65.027C99.3242 65.961 99.1866 66.9498 99.2441 67.937C99.3015 68.9242 99.5529 69.8904 99.9837 70.7804C100.415 71.6704 101.017 72.4669 101.755 73.1243C102.494 73.7817 103.355 74.2872 104.289 74.6119C105.223 74.9365 106.212 75.0741 107.199 75.0166C108.186 74.9592 109.152 74.7078 110.042 74.277C110.932 73.8461 111.729 73.2442 112.386 72.5055C115.999 68.4714 118.453 63.5344 119.487 58.2183C120.521 52.9022 120.096 47.4054 118.259 42.3111C116.421 37.2168 113.238 32.715 109.048 29.2834C104.859 25.8517 99.8182 23.6183 94.4617 22.82C91.6084 16.0549 86.8234 10.2815 80.7055 6.22209C74.5875 2.16266 67.4084 -0.00250244 60.0662 -0.00250244C52.724 -0.00250244 45.5448 2.16266 39.4269 6.22209C33.309 10.2815 28.524 16.0549 25.6707 22.82H25.5769Z" fill="white"></path><path d="M59.9829 119.997C61.972 119.997 63.8796 119.207 65.286 117.801C66.6925 116.394 67.4826 114.487 67.4826 112.498V78.1116L74.9823 85.6113C76.2363 86.9252 77.9095 87.7603 79.7134 87.9725C81.5172 88.1847 83.3385 87.7608 84.8632 86.7738C85.767 86.1483 86.5224 85.3319 87.0757 84.3821C87.629 83.4324 87.9669 82.3727 88.0652 81.2779C88.1636 80.1832 88.0202 79.0802 87.645 78.0471C87.2699 77.0139 86.6723 76.0758 85.8944 75.2992L71.57 61.0123C68.4912 57.9427 64.3211 56.2191 59.9735 56.2191C55.626 56.2191 51.4559 57.9427 48.3771 61.0123L34.0339 75.2992C33.2561 76.0758 32.6584 77.0139 32.2833 78.0471C31.9082 79.0802 31.7647 80.1832 31.8631 81.2779C31.9615 82.3727 32.2993 83.4324 32.8526 84.3821C33.406 85.3319 34.1613 86.1483 35.0652 86.7738C36.5912 87.773 38.4192 88.2058 40.2313 87.9968C42.0434 87.7879 43.7249 86.9504 44.9835 85.6301L52.4832 78.1304V112.498C52.4832 114.487 53.2734 116.394 54.6798 117.801C56.0863 119.207 57.9939 119.997 59.9829 119.997Z" fill="#c26ac0"></path></svg>