<svg width="69" height="65" viewBox="0 0 69 65" fill="none" xmlns="http://www.w3.org/2000/svg">
<path d="M53 30.3204V28.8574C53 15.9844 44.5245 8.96338 34 8.96338C23.4755 8.96338 15 15.9844 15 28.8574V30.9085C15 31.4967 15 31.7834 15.2938 32.0775C16.4689 44.0756 24.3568 55.7723 34 55.7723C43.6432 55.7723 51.5385 43.7742 52.7062 32.0775C53 31.4893 53 31.2026 53 30.9085V30.3204ZM35.4615 35.2975V26.5195C44.5245 26.8136 49.4894 29.1514 50.0769 30.6144V30.9085C49.4967 32.6656 44.5245 35.0035 35.4615 35.2975ZM18.2242 31.2026V30.6144C18.8118 29.1514 23.7766 26.8136 32.5458 26.5195V35.2975C24.063 35.0035 18.8044 32.6656 18.2242 31.2026ZM49.7832 26.8136C46.5663 25.0565 41.0139 23.8875 35.4615 23.8875V11.8894C43.6506 12.4775 49.2029 18.3296 49.7832 26.8136ZM32.5385 11.8894V23.5935C26.9861 23.8875 21.4337 24.7624 18.2169 26.5195C19.0982 18.3296 24.3568 12.7643 32.5385 11.8894ZM18.8044 35.2975C22.0213 37.0546 27.2799 37.9295 32.5385 38.2236V52.8537C26.4059 51.6774 20.8535 44.0756 18.8044 35.2975ZM35.4615 52.8463V38.2162C40.7201 38.2162 45.9861 37.0473 49.1956 35.2902C47.4476 44.3623 41.6015 51.6774 35.4615 52.8463Z" fill="#FFE177"/>
<path d="M67.1583 64.2637H50.2871C49.4554 64.2637 48.8613 63.6739 48.8613 62.8481C48.8613 62.0223 49.5742 61.4325 50.2871 61.4325H65.6137V47.984C65.6137 47.1582 66.3266 46.5684 67.0395 46.5684C67.8711 46.5684 68.4652 47.1582 68.4652 47.984V62.8481C68.584 63.6739 67.9899 64.2637 67.1583 64.2637ZM67.0989 18.7572C66.2672 18.7572 65.6731 18.1674 65.6731 17.3416V3.30329H50.2276C49.396 3.30329 48.8019 2.71345 48.8019 1.88766C48.8019 1.06188 49.5148 0.472037 50.2276 0.472037H66.98C67.8117 0.472037 68.4058 1.06188 68.4058 1.88766V17.3416C68.5246 18.1674 67.9305 18.7572 67.0989 18.7572ZM17.2278 3.30329H3.44569V17.3416C3.44569 18.1674 2.73282 18.7572 2.01995 18.7572C1.18828 18.7572 0.594219 18.1674 0.594219 17.3416V1.88766C0.594219 1.06188 1.30709 0.472037 2.01995 0.472037H17.3466C18.1783 0.472037 18.7724 1.06188 18.7724 1.88766C18.7724 2.71345 18.0595 3.30329 17.2278 3.30329ZM1.90114 46.4504C2.73282 46.4504 3.32688 47.0403 3.32688 47.8661V61.3145H17.2278C18.0595 61.3145 18.6535 61.9044 18.6535 62.7301C18.6535 63.5559 17.9407 64.1458 17.2278 64.1458H1.90114C1.06946 64.1458 0.475407 63.5559 0.475407 62.7301V47.984C0.475407 47.1582 1.06946 46.4504 1.90114 46.4504ZM67.1583 64.7356H50.2871C49.7829 64.7356 49.2994 64.5368 48.9429 64.1828C48.5864 63.8288 48.3861 63.3487 48.3861 62.8481C48.3861 62.3475 48.5864 61.8674 48.9429 61.5134C49.2994 61.1595 49.7829 60.9606 50.2871 60.9606H65.1385V47.984C65.1385 47.4834 65.3388 47.0033 65.6953 46.6494C66.0518 46.2954 66.5353 46.0965 67.0395 46.0965C67.5436 46.0965 68.0271 46.2954 68.3836 46.6494C68.7402 47.0033 68.9404 47.4834 68.9404 47.984V62.8481C69.0592 63.9098 68.2276 64.7356 67.1583 64.7356ZM68.1088 47.984C68.1088 47.8601 68.0842 47.7373 68.0365 47.6228C67.9887 47.5083 67.9187 47.4042 67.8304 47.3165C67.7422 47.2289 67.6374 47.1593 67.5221 47.1119C67.4067 47.0644 67.2831 47.04 67.1583 47.04C67.0334 47.04 66.9098 47.0644 66.7945 47.1119C66.6791 47.1593 66.5743 47.2289 66.4861 47.3165C66.3978 47.4042 66.3278 47.5083 66.2801 47.6228C66.2323 47.7373 66.2077 47.8601 66.2078 47.984V61.9044H50.2871C50.1622 61.9043 50.0386 61.9287 49.9232 61.9761C49.8079 62.0235 49.7031 62.093 49.6148 62.1807C49.5265 62.2683 49.4565 62.3724 49.4087 62.4869C49.3609 62.6014 49.3363 62.7242 49.3363 62.8481C49.3363 62.9721 49.3609 63.0948 49.4087 63.2093C49.4565 63.3238 49.5265 63.4279 49.6148 63.5155C49.7031 63.6032 49.8079 63.6727 49.9232 63.7201C50.0386 63.7675 50.1622 63.7919 50.2871 63.7919H67.0395C67.1648 63.7936 67.2892 63.7705 67.4053 63.7237C67.5214 63.6769 67.6269 63.6074 67.7156 63.5194C67.8042 63.4314 67.8741 63.3267 67.9213 63.2114C67.9684 63.0961 67.9917 62.9725 67.9899 62.8481V47.984H68.1088ZM67.0989 19.2291C66.8483 19.2324 66.5996 19.1858 66.3675 19.0921C66.1354 18.9984 65.9245 18.8595 65.7473 18.6835C65.5701 18.5076 65.4302 18.2982 65.3359 18.0678C65.2415 17.8373 65.1946 17.5904 65.1979 17.3416V3.77517H50.2276C49.9771 3.77844 49.7284 3.73185 49.4963 3.63815C49.2642 3.54445 49.0533 3.40554 48.8761 3.22962C48.6989 3.05369 48.559 2.84431 48.4647 2.61383C48.3703 2.38335 48.3234 2.13644 48.3267 1.88766C48.3234 1.63889 48.3703 1.39198 48.4647 1.1615C48.559 0.931016 48.6989 0.721637 48.8761 0.54571C49.0533 0.369784 49.2642 0.230874 49.4963 0.137176C49.7284 0.0434784 49.9771 -0.00310954 50.2276 0.000160999H66.98C68.1682 0.000160999 68.9998 0.825943 68.9998 1.88766V17.3416C69.0031 17.5904 68.9562 17.8373 68.8618 18.0678C68.7675 18.2982 68.6276 18.5076 68.4504 18.6835C68.2732 18.8595 68.0623 18.9984 67.8302 19.0921C67.5981 19.1858 67.3494 19.2324 67.0989 19.2291ZM68.0493 1.88766C68.0512 1.76323 68.0278 1.63971 67.9807 1.5244C67.9335 1.40909 67.8636 1.30434 67.775 1.21635C67.6863 1.12835 67.5808 1.0589 67.4647 1.01211C67.3486 0.965314 67.2242 0.942125 67.0989 0.943912H50.2276C50.1023 0.942125 49.9779 0.965314 49.8618 1.01211C49.7457 1.0589 49.6402 1.12835 49.5515 1.21635C49.4629 1.30434 49.393 1.40909 49.3458 1.5244C49.2987 1.63971 49.2754 1.76323 49.2772 1.88766C49.2754 2.01209 49.2987 2.13562 49.3458 2.25093C49.393 2.36624 49.4629 2.47099 49.5515 2.55898C49.6402 2.64697 49.7457 2.71642 49.8618 2.76322C49.9779 2.81001 50.1023 2.8332 50.2276 2.83142H66.0296V17.3416C66.0295 17.4655 66.0541 17.5883 66.1018 17.7028C66.1496 17.8174 66.2196 17.9214 66.3079 18.0091C66.3961 18.0967 66.5009 18.1663 66.6162 18.2137C66.7316 18.2612 66.8552 18.2856 66.98 18.2856C67.1049 18.2856 67.2285 18.2612 67.3438 18.2137C67.4592 18.1663 67.564 18.0967 67.6522 18.0091C67.7405 17.9214 67.8105 17.8174 67.8583 17.7028C67.906 17.5883 67.9306 17.4655 67.9305 17.3416V1.88766H68.0493ZM17.2278 3.77517H3.92094V17.3416C3.92423 17.5904 3.87731 17.8373 3.78294 18.0678C3.68858 18.2982 3.54867 18.5076 3.37149 18.6835C3.19431 18.8595 2.98343 18.9984 2.75131 19.0921C2.51918 19.1858 2.27051 19.2324 2.01995 19.2291C1.7694 19.2324 1.52073 19.1858 1.2886 19.0921C1.05648 18.9984 0.845601 18.8595 0.668419 18.6835C0.491236 18.5076 0.351334 18.2982 0.256967 18.0678C0.1626 17.8373 0.11568 17.5904 0.118973 17.3416V1.88766C0.000162146 0.825943 0.831841 0.000160999 1.90114 0.000160999H17.2278C17.4784 -0.00310954 17.727 0.0434784 17.9592 0.137176C18.1913 0.230874 18.4022 0.369784 18.5793 0.54571C18.7565 0.721637 18.8964 0.931016 18.9908 1.1615C19.0852 1.39198 19.1321 1.63889 19.1288 1.88766C19.2476 2.94938 18.2971 3.77517 17.2278 3.77517ZM17.2278 0.943912H1.90114C1.77583 0.942125 1.65142 0.965314 1.53529 1.01211C1.41915 1.0589 1.31366 1.12835 1.22503 1.21635C1.13641 1.30434 1.06647 1.40909 1.01934 1.5244C0.972208 1.63971 0.948852 1.76323 0.950653 1.88766V17.3416C0.948852 17.466 0.972208 17.5895 1.01934 17.7049C1.06647 17.8202 1.13641 17.9249 1.22503 18.0129C1.31366 18.1009 1.41915 18.1704 1.53529 18.2171C1.65142 18.2639 1.77583 18.2871 1.90114 18.2853C2.02646 18.2871 2.15087 18.2639 2.267 18.2171C2.38313 18.1704 2.48863 18.1009 2.57725 18.0129C2.66588 17.9249 2.73582 17.8202 2.78295 17.7049C2.83008 17.5895 2.85343 17.466 2.85163 17.3416V2.83142H17.2278C17.3531 2.8332 17.4775 2.81001 17.5937 2.76322C17.7098 2.71642 17.8153 2.64697 17.9039 2.55898C17.9925 2.47099 18.0625 2.36624 18.1096 2.25093C18.1567 2.13562 18.1801 2.01209 18.1783 1.88766C18.2971 1.29782 17.8219 0.943912 17.2278 0.943912ZM1.90114 46.0965C2.1517 46.0932 2.40037 46.1398 2.6325 46.2335C2.86462 46.3272 3.0755 46.4661 3.25268 46.6421C3.42986 46.818 3.56976 47.0274 3.66413 47.2579C3.7585 47.4883 3.80542 47.7352 3.80212 47.984V60.9606H17.2278C17.732 60.9606 18.2155 61.1595 18.572 61.5134C18.9285 61.8674 19.1288 62.3475 19.1288 62.8481C19.1288 63.3487 18.9285 63.8288 18.572 64.1828C18.2155 64.5368 17.732 64.7356 17.2278 64.7356H1.90114C1.65059 64.7389 1.40192 64.6923 1.16979 64.5986C0.937665 64.5049 0.72679 64.366 0.549607 64.1901C0.372424 64.0141 0.232523 63.8048 0.138156 63.5743C0.0437889 63.3438 -0.00313174 63.0969 0.000162148 62.8481V47.984C-0.00313174 47.7352 0.0437889 47.4883 0.138156 47.2579C0.232523 47.0274 0.372424 46.818 0.549607 46.6421C0.72679 46.4661 0.937665 46.3272 1.16979 46.2335C1.40192 46.1398 1.65059 46.0932 1.90114 46.0965ZM0.950653 62.8481C0.948852 62.9725 0.972208 63.0961 1.01934 63.2114C1.06647 63.3267 1.13641 63.4314 1.22503 63.5194C1.31366 63.6074 1.41915 63.6769 1.53529 63.7237C1.65142 63.7705 1.77583 63.7936 1.90114 63.7919H17.2278C17.3526 63.7919 17.4763 63.7675 17.5916 63.7201C17.707 63.6727 17.8118 63.6032 17.9001 63.5155C17.9883 63.4279 18.0584 63.3238 18.1062 63.2093C18.1539 63.0948 18.1785 62.9721 18.1785 62.8481C18.1785 62.7242 18.1539 62.6014 18.1062 62.4869C18.0584 62.3724 17.9883 62.2683 17.9001 62.1807C17.8118 62.093 17.707 62.0235 17.5916 61.9761C17.4763 61.9287 17.3526 61.9043 17.2278 61.9044H2.97045V47.984C2.97225 47.8596 2.94889 47.7361 2.90176 47.6208C2.85463 47.5055 2.78469 47.4007 2.69606 47.3127C2.60744 47.2247 2.50194 47.1553 2.38581 47.1085C2.26968 47.0617 2.14527 47.0385 2.01995 47.0403C1.89464 47.0385 1.77023 47.0617 1.6541 47.1085C1.53797 47.1553 1.43247 47.2247 1.34384 47.3127C1.25522 47.4007 1.18528 47.5055 1.13815 47.6208C1.09102 47.7361 1.06766 47.8596 1.06946 47.984V62.8481H0.950653Z" fill="#c26ac0"/>
</svg>
