<svg width="25" height="27" viewBox="0 0 25 27" fill="none" xmlns="http://www.w3.org/2000/svg">
<path d="M17.5501 24.7906H10.9892C9.91412 24.7906 9.43159 24.0117 8.99983 23.326C8.97444 23.2837 8.94058 23.2414 8.90671 23.199C8.86438 23.1398 8.83054 23.089 8.79667 23.0466L5.7321 18.4921C5.08026 17.5271 5.33423 16.2064 6.30777 15.5546C6.65488 15.3175 7.06122 15.199 7.4845 15.199C7.97551 15.199 8.44956 15.3683 8.82208 15.6731V7.5207C8.82208 6.35246 9.72787 5.4043 10.8369 5.4043C11.9459 5.4043 12.8517 6.35246 12.8517 7.5207V10.4244C13.1141 10.2636 13.4104 10.1705 13.7237 10.1705C14.3416 10.1705 14.8919 10.5091 15.2305 11.0509C15.5522 10.78 15.9416 10.6191 16.348 10.6191C17.0845 10.6191 17.7448 11.1271 18.0326 11.8636C18.2612 11.7535 18.5067 11.6943 18.7607 11.6943C19.785 11.6943 20.6147 12.6424 20.6147 13.8107V20.2022C20.6231 22.5218 18.8623 24.7906 17.5501 24.7906ZM7.47601 16.0287C7.22205 16.0287 6.97656 16.1048 6.77336 16.2403C6.18925 16.6297 6.03688 17.417 6.4263 18.0012L9.49084 22.5556C9.51623 22.598 9.55009 22.6403 9.58396 22.6911C9.61783 22.7419 9.65169 22.7927 9.68554 22.835L9.69402 22.8519C10.1596 23.5969 10.4221 23.9271 10.9723 23.9271H17.5332C18.2527 23.9271 19.7596 22.1577 19.7596 20.1937V13.8022C19.7596 13.1165 19.294 12.5323 18.7522 12.5323C18.5067 12.5323 18.2697 12.6509 18.075 12.8625L17.4062 13.616L17.33 12.617C17.2792 11.9736 16.839 11.4657 16.3226 11.4657C15.984 11.4657 15.6538 11.6943 15.4676 12.0667L14.9258 13.1588L14.6718 11.9652C14.5533 11.4149 14.1469 11.0086 13.6982 11.0086C13.3258 11.0086 12.9702 11.2879 12.7924 11.7196L11.9797 13.7514V7.5207C11.9797 6.81805 11.4549 6.25086 10.8115 6.25086C10.1681 6.25086 9.64321 6.81805 9.64321 7.5207V18.2551L8.53422 16.5874C8.29719 16.2403 7.90778 16.0287 7.47601 16.0287Z" fill="black" stroke="black" stroke-width="0.2"/>
<path d="M12.006 10.8223H12.8525C12.8525 10.8223 12.8525 13.3571 12.8525 13.7768C12.8525 14.1964 12.0238 14.2847 12.006 13.7768C11.9881 13.2688 12.006 10.8223 12.006 10.8223ZM14.7319 11.3302H15.5784C15.5784 11.3302 15.5784 13.8659 15.5784 14.2847C15.5784 14.7035 14.7319 14.7167 14.7319 14.2847C14.7319 13.8528 14.7319 11.3302 14.7319 11.3302ZM17.3731 12.1429H18.2197C18.2197 12.1429 18.2197 14.6948 18.2197 15.0974C18.2197 15.5 17.3731 15.5 17.3731 15.0974C17.3731 14.6948 17.3731 12.1429 17.3731 12.1429Z" fill="black" stroke="black" stroke-width="0.2"/>
<path d="M7.12698 8.90758C6.59909 9.02992 6.04933 8.9571 5.57889 8.70254C5.10846 8.44799 4.74901 8.02882 4.56672 7.5222C4.38443 7.01558 4.39157 6.45561 4.58681 5.94536C4.78205 5.43511 5.15227 5.00893 5.6293 4.74527C6.10634 4.4816 6.65809 4.3982 7.18299 4.51042C7.7079 4.62263 8.17062 4.9229 8.48599 5.35597" stroke="black" stroke-width="1.2" stroke-linecap="round"/>
<path d="M7.26945 11.3951C6.13678 11.5624 4.99146 11.3149 4.0443 10.6983C3.09714 10.0817 2.4119 9.13742 2.1147 8.03929C1.81751 6.94116 1.92837 5.7631 2.42688 4.72194C2.92539 3.68078 3.77799 2.84662 4.82775 2.37299C5.8775 1.89936 7.05376 1.81815 8.13998 2.1443C9.22621 2.47046 10.1493 3.18203 10.7394 4.14803" stroke="black" stroke-width="1.2" stroke-linecap="round"/>
</svg>
